<svg xmlns="http://www.w3.org/2000/svg" version="1.1" xmlns:xlink="http://www.w3.org/1999/xlink" width="512" height="512" x="0" y="0" viewBox="0 0 48 48" style="enable-background:new 0 0 512 512" xml:space="preserve" class=""><g transform="matrix(1.2000000000000002,0,0,1.2000000000000002,-4.805145645141604,-4.800001144409183)"><g data-name="Layer 2"><path fill="#00bec5" d="M43.95 43.28a.69.69 0 0 1-.14.3.983.983 0 0 1-.81.42H25a.983.983 0 0 1-.81-.42 1 1 0 0 1-.14-.9l4-12A1.014 1.014 0 0 1 29 30h10a1.014 1.014 0 0 1 .95.68l4 12a.947.947 0 0 1 0 .6z" opacity="1" data-original="#edc500" class=""></path><path fill="#00bec5" d="M33.81 29.58A.983.983 0 0 1 33 30H15a.983.983 0 0 1-.81-.42 1 1 0 0 1-.14-.9l4-12a.355.355 0 0 1 .04-.09A1 1 0 0 1 19 16h10a1.014 1.014 0 0 1 .95.68l2.34 7.02 1.66 4.98a1 1 0 0 1-.14.9z" opacity="1" data-original="#edc500" class=""></path><path fill="#3a7c78" d="M23.81 43.58A.983.983 0 0 1 23 44H5a.983.983 0 0 1-.81-.42 1 1 0 0 1-.14-.9l4-12A1.014 1.014 0 0 1 9 30h10a1.014 1.014 0 0 1 .95.68l4 12a1 1 0 0 1-.14.9z" opacity="1" data-original="#ff2ea6" class=""></path><g fill="#fa0"><path d="M24 12a1 1 0 0 1-1-1V5a1 1 0 0 1 2 0v6a1 1 0 0 1-1 1zM32 15.67a.978.978 0 0 1-.4-.084 1 1 0 0 1-.517-1.316l2.4-5.5a1 1 0 0 1 1.833.8l-2.4 5.5a1 1 0 0 1-.916.6zM38.664 22.4a1 1 0 0 1-.68-1.733l4.4-4.08a1 1 0 0 1 1.359 1.467l-4.4 4.08a1 1 0 0 1-.679.266zM16 15.67a1 1 0 0 1-.917-.6L12.7 9.569a1 1 0 0 1 1.835-.8l2.386 5.5a1 1 0 0 1-.519 1.316.984.984 0 0 1-.402.085zM9.374 22.4a.994.994 0 0 1-.682-.268l-4.374-4.08a1 1 0 0 1 1.364-1.463l4.374 4.08a1 1 0 0 1-.682 1.731z" fill="#ffaa00" opacity="1" data-original="#ffaa00" class=""></path></g><path fill="#00bec5" d="M33.81 29.58A.983.983 0 0 1 33 30a13.558 13.558 0 0 1-1.43-.07 15 15 0 0 1-13.48-13.34A1 1 0 0 1 19 16h10a1.014 1.014 0 0 1 .95.68l2.34 7.02 1.66 4.98a1 1 0 0 1-.14.9z" opacity="1" data-original="#ffda00" class=""></path><path fill="#00bec5" d="M43.95 43.28A14.991 14.991 0 0 1 31.58 30H39a1.014 1.014 0 0 1 .95.68l4 12a.947.947 0 0 1 0 .6z" opacity="1" data-original="#ffda00" class=""></path><path fill="#3a7c78" d="M23.81 43.58A.983.983 0 0 1 23 44h-5.41A12.512 12.512 0 0 1 10 32.5a12.846 12.846 0 0 1 .25-2.5H19a1.014 1.014 0 0 1 .95.68l4 12a1 1 0 0 1-.14.9z" opacity="1" data-original="#ff50b5" class=""></path></g></g></svg>