<svg xmlns="http://www.w3.org/2000/svg" version="1.1" xmlns:xlink="http://www.w3.org/1999/xlink" width="512" height="512" x="0" y="0" viewBox="0 0 24 24" style="enable-background:new 0 0 512 512" xml:space="preserve" class=""><g transform="matrix(1.1199999999999992,0,0,1.1199999999999992,-1.4400006866454973,-1.4399999999999924)"><g data-name="Layer 2"><path fill="#a4a7f4" d="m21.782 9.053-7.447-3.724A.75.75 0 0 0 13.25 6v15a.75.75 0 0 0 .75.75h6A2.752 2.752 0 0 0 22.75 19v-8.382a1.739 1.739 0 0 0-.968-1.565z" opacity="1" data-original="#a4a7f4" class=""></path><path fill="#7b7af1" d="M19 12.75h-2a.75.75 0 0 1 0-1.5h2a.75.75 0 0 1 0 1.5zM19 15.75h-2a.75.75 0 0 1 0-1.5h2a.75.75 0 0 1 0 1.5zM19 18.75h-2a.75.75 0 0 1 0-1.5h2a.75.75 0 0 1 0 1.5zM14.75 4v17a.755.755 0 0 1-.75.75H3A1.758 1.758 0 0 1 1.25 20V4A1.758 1.758 0 0 1 3 2.25h10A1.758 1.758 0 0 1 14.75 4z" opacity="1" data-original="#7b7af1"></path><g fill="#c9cafa"><path d="M11.25 17.5v4.25h-6.5V17.5A1.25 1.25 0 0 1 6 16.25h4a1.25 1.25 0 0 1 1.25 1.25zM10.5 13.25h-1a.75.75 0 0 1 0-1.5h1a.75.75 0 0 1 0 1.5zM10.5 7.25h-1a.75.75 0 0 1 0-1.5h1a.75.75 0 0 1 0 1.5zM10.5 10.25h-1a.75.75 0 0 1 0-1.5h1a.75.75 0 0 1 0 1.5zM6.5 13.25h-1a.75.75 0 0 1 0-1.5h1a.75.75 0 0 1 0 1.5zM6.5 7.25h-1a.75.75 0 0 1 0-1.5h1a.75.75 0 0 1 0 1.5zM6.5 10.25h-1a.75.75 0 0 1 0-1.5h1a.75.75 0 0 1 0 1.5z" fill="#c9cafa" opacity="1" data-original="#c9cafa"></path></g></g></g></svg>