<svg xmlns="http://www.w3.org/2000/svg" version="1.1" xmlns:xlink="http://www.w3.org/1999/xlink" width="512" height="512" x="0" y="0" viewBox="0 0 48 48" style="enable-background:new 0 0 512 512" xml:space="preserve" class=""><g transform="matrix(1.1399999999999992,0,0,1.1399999999999992,-3.359999999999985,-3.3599919891357253)"><path fill="#7da8ff" d="M42 16.55V40a5 5 0 0 1-5 5H11a5 5 0 0 1-5-5V8a5 5 0 0 1 5-5h18.23a3.94 3.94 0 0 1 .77.07 4.96 4.96 0 0 1 2.93 1.57l7.77 8.54A4.963 4.963 0 0 1 41.97 16a5.068 5.068 0 0 1 .03.55z" opacity="1" data-original="#7da8ff" class=""></path><path fill="#a6c5fa" d="M41.97 16H33a3.009 3.009 0 0 1-3-3V3.07a4.96 4.96 0 0 1 2.93 1.57l7.77 8.54A4.963 4.963 0 0 1 41.97 16z" opacity="1" data-original="#a6c5fa" class=""></path><g fill="#f9f5f5"><path d="M17 19h-3a2 2 0 0 1-2-2v-3a2 2 0 0 1 2-2h3a2 2 0 0 1 2 2v3a2 2 0 0 1-2 2zm-3-5v3h3v-3zM26 15h-4a1 1 0 0 1 0-2h4a1 1 0 0 1 0 2zM29 19h-7a1 1 0 0 1 0-2h7a1 1 0 0 1 0 2zM17 29h-3a2 2 0 0 1-2-2v-3a2 2 0 0 1 2-2h3a2 2 0 0 1 2 2v3a2 2 0 0 1-2 2zm-3-5v3h3v-3zM28 25h-6a1 1 0 0 1 0-2h6a1 1 0 0 1 0 2zM33 29H22a1 1 0 0 1 0-2h11a1 1 0 0 1 0 2zM17 39h-3a2 2 0 0 1-2-2v-3a2 2 0 0 1 2-2h3a2 2 0 0 1 2 2v3a2 2 0 0 1-2 2zm-3-5v3h3v-3zM28 35h-6a1 1 0 0 1 0-2h6a1 1 0 0 1 0 2zM33 39H22a1 1 0 0 1 0-2h11a1 1 0 0 1 0 2z" fill="#f9f5f5" opacity="1" data-original="#f9f5f5" class=""></path></g></g></svg>