<svg xmlns="http://www.w3.org/2000/svg" version="1.1" xmlns:xlink="http://www.w3.org/1999/xlink" width="512" height="512" x="0" y="0" viewBox="0 0 24 24" style="enable-background:new 0 0 512 512" xml:space="preserve"><g transform="matrix(1.1099999999999997,0,0,1.1099999999999997,-1.3199999999999985,-1.278749999999997)"><path fill="#443d66" d="M12 18.75a.75.75 0 0 1-.75-.75v-3a.75.75 0 0 1 1.5 0v3a.75.75 0 0 1-.75.75z" opacity="1" data-original="#443d66"></path><path fill="#59abff" d="M20.75 2v11A2.748 2.748 0 0 1 18 15.75H6A2.748 2.748 0 0 1 3.25 13V2A.755.755 0 0 1 4 1.25h16a.755.755 0 0 1 .75.75z" opacity="1" data-original="#59abff"></path><path fill="#7bc7ff" d="M16 5.5a11.5 11.5 0 0 1-6.29 10.25H6A2.748 2.748 0 0 1 3.25 13V2A.755.755 0 0 1 4 1.25h11.19A11.52 11.52 0 0 1 16 5.5z" opacity="1" data-original="#7bc7ff"></path><circle cx="12" cy="20" r="2" fill="#443d66" opacity="1" data-original="#443d66"></circle><path fill="#443d66" d="M22.75 2a.755.755 0 0 1-.75.75H2a.75.75 0 0 1 0-1.5h20a.755.755 0 0 1 .75.75z" opacity="1" data-original="#443d66"></path><path fill="#5c5c8e" d="M15.52 2.75H2a.75.75 0 0 1 0-1.5h12.93a12.3 12.3 0 0 1 .59 1.5z" opacity="1" data-original="#5c5c8e"></path><path fill="#f3f5f9" d="M13 10.25a.746.746 0 0 1-.416-.126L10.1 8.465 8.53 10.03a.75.75 0 0 1-1.06-1.06l2-2a.751.751 0 0 1 .946-.094L12.9 8.535l2.57-2.565a.75.75 0 0 1 1.06 1.06l-3 3a.747.747 0 0 1-.53.22z" opacity="1" data-original="#f3f5f9"></path></g></svg>